<svg width="51" height="39" viewBox="0 0 51 39" fill="none" xmlns="http://www.w3.org/2000/svg">
<path d="M43.1133 3.75104C48.7278 12.0656 51.5351 21.3983 50.5143 32.1733C50.5143 32.1733 50.5143 32.2581 50.4292 32.2581C46.6862 35.0579 42.4327 37.179 37.924 38.5365C37.839 38.6213 37.839 38.5365 37.7539 38.5365C36.8181 37.179 35.9674 35.8215 35.2018 34.3792C35.2018 34.2943 35.2018 34.2943 35.2018 34.2095L35.2869 34.1246C36.648 33.6156 37.924 33.0217 39.2001 32.2581C39.2001 32.2581 39.2852 32.2581 39.2852 32.1733C39.2852 32.0884 39.2852 32.0884 39.2001 32.0036C38.9449 31.8339 38.6897 31.6642 38.4345 31.4097C38.3494 31.4097 38.3494 31.4097 38.2643 31.4097C30.1827 35.1428 21.3355 35.1428 13.1689 31.4097C13.0838 31.4097 12.9987 31.4097 12.9987 31.4097C12.7435 31.6642 12.4883 31.8339 12.2331 32.0036C12.1481 32.0884 12.1481 32.0884 12.1481 32.1733C12.1481 32.2581 12.1481 32.2581 12.2331 32.2581C13.4241 33.0217 14.7852 33.6156 16.1463 34.1246C16.1463 34.1246 16.1463 34.2095 16.2314 34.2095C16.2314 34.2943 16.2314 34.2943 16.2314 34.3792C15.4658 35.8215 14.6151 37.179 13.6793 38.5365C13.5942 38.5365 13.5092 38.6213 13.5092 38.5365C9.00049 37.179 4.74703 35.0579 1.00398 32.2581C0.918908 32.2581 0.918908 32.1733 0.918908 32.1733C0.0682154 22.8406 1.85467 13.4231 8.31994 3.75104C8.31994 3.75104 8.31994 3.75104 8.405 3.75104C11.6376 2.22387 15.0404 1.20576 18.5282 0.611865C18.6133 0.527023 18.6984 0.611865 18.6984 0.611865C19.2088 1.46029 19.6341 2.39356 19.9744 3.24198C23.8025 2.64808 27.6307 2.64808 31.4588 3.24198C31.7991 2.39356 32.2244 1.46029 32.7348 0.611865C32.7348 0.611865 32.8199 0.527023 32.905 0.611865C36.3928 1.20576 39.7956 2.22387 43.0282 3.75104C43.1133 3.75104 43.1133 3.75104 43.1133 3.75104ZM17.4223 26.4888C19.8894 26.4888 21.931 24.1981 21.931 21.4831C21.931 18.6833 19.9744 16.4774 17.4223 16.4774C14.9553 16.4774 12.9137 18.6833 12.9137 21.4831C12.9137 24.1981 14.9553 26.4888 17.4223 26.4888ZM34.0109 26.4888C36.5629 26.4888 38.5195 24.1981 38.5195 21.4831C38.6046 18.6833 36.5629 16.4774 34.0109 16.4774C31.5438 16.4774 29.5873 18.6833 29.5873 21.4831C29.5873 24.1981 31.5438 26.4888 34.0109 26.4888Z" fill="#1D1D1D"/>
</svg>
