<svg width="54" height="54" viewBox="0 0 54 54" fill="none" xmlns="http://www.w3.org/2000/svg">
<path fill-rule="evenodd" clip-rule="evenodd" d="M0 27.685C0 39.9146 7.7356 50.2918 18.4647 53.9526C19.8155 54.2075 20.3078 53.3526 20.3078 52.6184C20.3078 51.9607 20.2846 50.2204 20.2713 47.9108C12.7612 49.5831 11.1766 44.1991 11.1766 44.1991C9.94837 41.0006 8.17815 40.1492 8.17815 40.1492C5.7267 38.431 8.36379 38.4667 8.36379 38.4667C11.0738 38.6621 12.4993 41.3201 12.4993 41.3201C14.9093 45.5502 18.8194 44.3283 20.3575 43.6196C20.6028 41.83 21.3007 40.6114 22.0714 39.918C16.0762 39.2195 9.77268 36.8453 9.77268 26.237C9.77268 23.2136 10.8252 20.7425 12.5523 18.8067C12.2755 18.1066 11.349 15.2922 12.8175 11.4819C12.8175 11.4819 15.085 10.7358 20.2415 14.3184C22.3963 13.7048 24.7052 13.3972 27.0008 13.387C29.2948 13.3972 31.6037 13.7048 33.7618 14.3184C38.915 10.7358 41.1792 11.4819 41.1792 11.4819C42.651 15.2922 41.7245 18.1066 41.4477 18.8067C43.1781 20.7425 44.2224 23.2136 44.2224 26.237C44.2224 36.8708 37.9106 39.211 31.8955 39.8976C32.8651 40.7525 33.727 42.4418 33.727 45.0234C33.727 48.7249 33.6955 51.7109 33.6955 52.6184C33.6955 53.3594 34.1812 54.2194 35.5519 53.9492C46.271 50.2816 54 39.9129 54 27.685C54 12.3945 41.9101 0 26.9975 0C12.0899 0 0 12.3945 0 27.685Z" fill="#1D1D1D"/>
</svg>
