<svg width="49" height="48" viewBox="0 0 49 48" fill="none" xmlns="http://www.w3.org/2000/svg">
<path d="M24.5023 0C17.8484 0 17.0134 0.0285005 14.4 0.145C11.7918 0.262 10.0114 0.6665 8.45361 1.26C6.84221 1.873 5.4753 2.693 4.11349 4.0275C2.75066 5.3615 1.91357 6.7005 1.28575 8.2785C0.67835 9.805 0.264909 11.5495 0.147512 14.1035C0.0306251 16.6635 0 17.482 0 24C0 30.518 0.0296049 31.3335 0.148023 33.8935C0.267972 36.4485 0.680903 38.1925 1.28626 39.7185C1.91255 41.297 2.74964 42.636 4.11196 43.97C5.47325 45.305 6.84016 46.127 8.45055 46.74C10.0094 47.3335 11.7902 47.738 14.398 47.855C17.0113 47.9715 17.8459 48 24.4992 48C31.1536 48 31.9861 47.9715 34.5995 47.855C37.2077 47.738 38.9901 47.3335 40.5489 46.74C42.1598 46.127 43.5247 45.305 44.886 43.97C46.2488 42.636 47.0859 41.297 47.7137 39.719C48.316 38.1925 48.7295 36.448 48.852 33.894C48.9694 31.334 49 30.518 49 24C49 17.482 48.9694 16.664 48.852 14.104C48.7295 11.549 48.316 9.805 47.7137 8.279C47.0859 6.7005 46.2488 5.3615 44.886 4.0275C43.5232 2.6925 42.1603 1.8725 40.5474 1.26C38.9855 0.6665 37.2041 0.262 34.5959 0.145C31.9825 0.0285005 31.1505 0 24.4946 0H24.5023ZM22.3044 4.325C22.9567 4.324 23.6846 4.325 24.5023 4.325C31.0439 4.325 31.8192 4.348 34.4024 4.463C36.7912 4.57 38.0877 4.961 38.9513 5.2895C40.0947 5.7245 40.9098 6.2445 41.7668 7.0845C42.6243 7.9245 43.1552 8.7245 43.6002 9.8445C43.9356 10.6895 44.3353 11.9595 44.444 14.2995C44.5614 16.8295 44.5869 17.5895 44.5869 23.9945C44.5869 30.3995 44.5614 31.1595 44.444 33.6895C44.3347 36.0295 43.9356 37.2995 43.6002 38.1445C43.1562 39.2645 42.6243 40.062 41.7668 40.9015C40.9093 41.7415 40.0952 42.2615 38.9513 42.6965C38.0887 43.0265 36.7912 43.4165 34.4024 43.5235C31.8197 43.6385 31.0439 43.6635 24.5023 43.6635C17.9602 43.6635 17.1849 43.6385 14.6022 43.5235C12.2134 43.4155 10.9169 43.0245 10.0528 42.696C8.90942 42.261 8.09274 41.741 7.23523 40.901C6.37772 40.061 5.84688 39.263 5.4018 38.1425C5.06645 37.2975 4.66679 36.0275 4.55807 33.6875C4.44067 31.1575 4.41719 30.3975 4.41719 23.9885C4.41719 17.5795 4.44067 16.8235 4.55807 14.2935C4.6673 11.9535 5.06645 10.6835 5.4018 9.8375C5.84586 8.7175 6.37772 7.9175 7.23523 7.0775C8.09274 6.2375 8.90942 5.7175 10.0528 5.2815C10.9164 4.9515 12.2134 4.5615 14.6022 4.454C16.8623 4.354 17.7382 4.324 22.3044 4.319V4.325ZM37.5803 8.31C35.9572 8.31 34.6403 9.5985 34.6403 11.189C34.6403 12.779 35.9572 14.069 37.5803 14.069C39.2035 14.069 40.5204 12.779 40.5204 11.189C40.5204 9.599 39.2035 8.309 37.5803 8.309V8.31ZM24.5023 11.675C17.5539 11.675 11.9204 17.1935 11.9204 24C11.9204 30.8065 17.5539 36.3225 24.5023 36.3225C31.4507 36.3225 37.0822 30.8065 37.0822 24C37.0822 17.1935 31.4507 11.675 24.5023 11.675ZM24.5023 16C29.0124 16 32.669 19.5815 32.669 24C32.669 28.418 29.0124 32 24.5023 32C19.9917 32 16.3355 28.418 16.3355 24C16.3355 19.5815 19.9917 16 24.5023 16Z" fill="#1D1D1D"/>
</svg>
