<svg width="67" height="30" viewBox="0 0 67 30" fill="none" xmlns="http://www.w3.org/2000/svg">
<path d="M66.4535 21.6173C66.4638 17.0612 62.8229 13.3724 58.3569 13.3724C57.243 13.3724 56.1806 13.6023 55.2008 14.0099C54.5407 6.61142 48.4141 0.801331 40.9364 0.801331C39.1005 0.801331 37.3264 1.14617 35.7484 1.78361C35.1192 2.01351 34.9439 2.2434 34.9439 2.74499V28.8381C34.9439 29.3606 35.3461 29.7368 35.8309 29.7995H58.3466C62.8126 29.7995 66.4535 26.1421 66.4535 21.6173Z" fill="#1D1D1D"/>
<path d="M34.2116 3.61233C34.1703 3.29883 34.0053 3.00624 33.7474 2.85994C33.634 2.77634 33.4586 2.71364 33.3142 2.71364C33.0873 2.71364 32.881 2.79724 32.7366 2.91219C32.5407 3.08984 32.4169 3.35108 32.3963 3.61233V3.69593L32.0559 22.1607L32.2313 25.5569L32.4066 28.8695C32.4375 29.3606 32.8398 29.7682 33.3245 29.7682C33.8093 29.7682 34.2116 29.3606 34.2116 28.8695L34.6138 22.1607L34.2116 3.61233Z" fill="#1D1D1D"/>
<path d="M16.7807 8.06394C17.0695 8.06394 17.3274 8.29384 17.3274 8.61778L17.874 22.2025L17.3274 29.2875C17.3274 29.6114 17.0695 29.8413 16.7807 29.8413C16.461 29.8413 16.2341 29.6114 16.2031 29.2875L15.7493 22.2025L16.2031 8.61778C16.2341 8.29384 16.461 8.06394 16.7807 8.06394Z" fill="#1D1D1D"/>
<path d="M14.6354 11.1048C14.6354 10.8122 14.4085 10.5823 14.1506 10.5823C13.8618 10.5823 13.6659 10.8122 13.6349 11.1048L13.1192 22.1398L13.6349 29.277C13.6659 29.5696 13.8618 29.7995 14.1506 29.7995C14.4085 29.7995 14.6354 29.5696 14.6354 29.277L15.2336 22.1398L14.6354 11.1048Z" fill="#1D1D1D"/>
<path d="M12.5416 22.1398L11.9434 15.3475C11.9125 15.1176 11.7165 14.9086 11.4896 14.9086C11.2524 14.9086 11.0564 15.1176 11.0564 15.3475L10.4788 22.1398L11.0564 29.277C11.0564 29.5383 11.2627 29.7368 11.4896 29.7368C11.7165 29.7368 11.9125 29.5383 11.9434 29.277L12.5416 22.1398Z" fill="#1D1D1D"/>
<path d="M1.45396 18.4197C1.42302 18.2734 1.3405 18.1585 1.19611 18.1585C1.05171 18.1585 0.969197 18.2734 0.938254 18.4197L0.453491 22.1398L0.938254 25.7973C0.969197 25.9436 1.05171 26.0585 1.19611 26.0585C1.3405 26.0585 1.42302 25.9436 1.45396 25.7973L2.03155 22.1398L1.45396 18.4197Z" fill="#1D1D1D"/>
<path d="M3.63023 15.8699C3.77463 15.8699 3.88809 15.9849 3.91903 16.1312L4.66164 22.1398L3.91903 28.0335C3.88809 28.1798 3.77463 28.2948 3.63023 28.2948C3.48584 28.2948 3.37238 28.1798 3.37238 28.0022L2.71228 22.1398L3.37238 16.1312C3.37238 15.9849 3.48584 15.8699 3.63023 15.8699Z" fill="#1D1D1D"/>
<path d="M6.55945 15.0235C6.55945 14.825 6.41506 14.6787 6.23972 14.6787C6.06438 14.6787 5.91998 14.825 5.89935 15.0235L5.30113 22.1398L5.89935 29.0158C5.93029 29.1934 6.07469 29.3397 6.23972 29.3397C6.41506 29.3397 6.55945 29.1934 6.55945 29.0158L7.27113 22.1398L6.55945 15.0235Z" fill="#1D1D1D"/>
<path d="M8.84916 14.4488C9.04513 14.4488 9.22047 14.5951 9.25141 14.825L9.91152 22.1398L9.25141 29.2248C9.22047 29.4547 9.04513 29.601 8.84916 29.601C8.65319 29.601 8.47785 29.4547 8.47785 29.2248L7.87964 22.1398L8.47785 14.825C8.47785 14.5951 8.65319 14.4488 8.84916 14.4488Z" fill="#1D1D1D"/>
<path d="M30.9935 4.45876C31.2205 4.60506 31.3649 4.8663 31.3958 5.1589L31.7362 22.1712L31.4164 28.2948L31.3855 28.9949C31.3855 29.2352 31.303 29.4338 31.1276 29.5801C30.9832 29.7264 30.777 29.8413 30.55 29.8413C30.2922 29.8413 30.0653 29.7159 29.8899 29.5174C29.7765 29.3711 29.7146 29.2039 29.7146 29.0262V28.9949C29.3949 22.1712 29.3949 22.1398 29.3949 22.1398L29.6837 5.33654L29.7146 5.1589C29.7146 4.8663 29.859 4.60506 30.0859 4.45876C30.22 4.37516 30.3747 4.31246 30.5397 4.31246C30.7048 4.31246 30.8492 4.37516 30.9935 4.45876Z" fill="#1D1D1D"/>
<path d="M20.1328 7.4474C20.1122 7.10256 19.8543 6.80997 19.5037 6.80997C19.1839 6.80997 18.9054 7.10256 18.9054 7.4474L18.4516 22.1398L18.9054 29.1621C18.9364 29.5069 19.1942 29.7682 19.5037 29.7682C19.844 29.7682 20.1019 29.5069 20.1328 29.1621L20.6485 22.1398L20.1328 7.4474Z" fill="#1D1D1D"/>
<path d="M27.7549 7.07121C28.1881 7.07121 28.4975 7.41605 28.5285 7.8863L28.9307 22.1712L28.5285 29.0262C28.5285 29.4651 28.1881 29.81 27.7549 29.81C27.3217 29.81 26.9814 29.4651 26.9504 29.0262L26.6101 22.1712L26.9504 7.8863C26.9814 7.41605 27.3217 7.07121 27.7549 7.07121Z" fill="#1D1D1D"/>
<path d="M22.9176 6.95626C22.8867 6.58007 22.5979 6.25613 22.2266 6.25613C21.8862 6.25613 21.5665 6.58007 21.5665 6.95626L21.1642 22.1398L21.5665 29.1307C21.5974 29.5069 21.8862 29.7995 22.2266 29.7995C22.5979 29.7995 22.8867 29.5069 22.9176 29.1307L23.3714 22.1398L22.9176 6.95626Z" fill="#1D1D1D"/>
<path d="M24.9805 6.61142C25.3827 6.61142 25.6921 6.92491 25.6921 7.33246L26.1253 22.1398L25.6921 29.0785C25.6921 29.4756 25.3724 29.7995 24.9805 29.7995C24.5885 29.7995 24.2997 29.486 24.2688 29.0785L23.8665 22.1398L24.2688 7.33246C24.2688 6.93536 24.5782 6.61142 24.9805 6.61142Z" fill="#1D1D1D"/>
</svg>
